<?xml version="1.0" encoding="UTF-8"?>
<!DOCTYPE svg PUBLIC "-//W3C//DTD SVG 1.1//EN" "http://www.w3.org/Graphics/SVG/1.1/DTD/svg11.dtd">
<!-- Creator: CorelDRAW 2020 (64-Bit) -->
<svg xmlns="http://www.w3.org/2000/svg" xml:space="preserve" width="24.1863mm" height="15.6455mm" version="1.1" style="shape-rendering:geometricPrecision; text-rendering:geometricPrecision; image-rendering:optimizeQuality; fill-rule:evenodd; clip-rule:evenodd"
viewBox="0 0 2278.16 1473.68"
 xmlns:xlink="http://www.w3.org/1999/xlink"
 xmlns:xodm="http://www.corel.com/coreldraw/odm/2003">
 <defs>
  <style type="text/css">
   <![CDATA[
    .fil0 {fill:#FEFEFE}
    .fil2 {fill:#FEFEFE}
    .fil1 {fill:#3E4095;fill-rule:nonzero}
    .fil3 {fill:#32B38A;fill-rule:nonzero}
   ]]>
  </style>
 </defs>
 <g id="Capa_x0020_1">
  <metadata id="CorelCorpID_0Corel-Layer"/>
  <g id="_1394305472640">
   <path class="fil0" d="M1129.13 0l525.56 0c3.44,0 6.56,0.15 9.75,0.46 51.21,1.71 101.96,8.25 151.16,20.91 2.51,0.56 5,1.22 7.46,1.97 39.63,10.73 78.2,25.5 115.13,44.99 88.6,46.75 158.36,114.64 207.03,202.18 50.94,91.61 71.28,193.74 71.28,297.88 0,103.76 -20.19,205.78 -71.64,296.74 -26.02,46 -58.14,86.6 -96.09,121.39l176.88 305.62c18.38,31.75 18.41,68.13 0.08,99.92 -18.33,31.78 -49.83,49.98 -86.52,49.98l-379.35 0c-36.81,0 -68.41,-18.33 -86.69,-50.28l-88.15 -154.08 0 104.5c0,55.01 -44.86,99.87 -99.87,99.87l-355.97 0c-0.46,0 -0.92,0 -1.38,-0.01l-123.19 0c-43.96,0 -81.3,-27.09 -94.95,-68.88l-48.19 -147.64 -256.39 0 -48.19 147.64c-13.65,41.79 -50.99,68.88 -94.95,68.88l-361.77 0c-33.73,0 -62.74,-15.16 -81.99,-42.85 -19.25,-27.69 -23.37,-60.17 -11.63,-91.79l461.26 -1242.3c14.82,-39.89 51.07,-65.11 93.63,-65.11l567.69 0z"/>
   <g>
    <g transform="matrix(0.849369 0 0 1 -898.331 -2182.12)">
     <path class="fil1" d="M100.18 1342.17l461.26 -1242.3 349.72 0 461.26 1242.3 -367.8 0 -340.67 -1043.53 138.68 0 -340.66 1043.53 -361.77 0zm274.34 -216.52l90.44 -301.7 485.38 0 90.43 301.7 -666.26 0z"/>
    </g>
    <polygon class="fil1" points="1129.19,1342.18 1129.19,424.65 819.96,424.65 819.96,99.87 1654.69,99.87 1674.43,102.97 1778.33,124.64 1794.38,119.31 1794.38,424.65 1485.16,424.65 1485.16,1342.18 "/>
    <g transform="matrix(0.848233 0 0 1 17.536 -2182.12)">
     <path class="fil1" d="M1129.13 1342.17l0 -1242.3 507.3 0c98.36,0 183.4,18.93 255.16,56.79 71.76,37.87 127.21,92 166.35,162.39 39.14,70.4 58.7,153.51 58.7,249.35 0,95.84 -19.56,178.36 -58.7,247.57 -39.15,69.21 -94.6,122.16 -166.35,158.84 -71.76,36.68 -156.8,55.02 -255.16,55.02l-310.1 0 158.05 -172.15 0 484.5 -355.26 0zm630.74 0l-258.92 -452.56 376.34 0 261.93 452.56 -379.35 0zm-275.48 -438.35l-158.05 -189.9 287.52 0c49.18,0 85.55,-13.01 109.14,-39.04 23.59,-26.03 35.38,-61.52 35.38,-106.48 0,-44.96 -11.79,-80.45 -35.38,-106.47 -23.59,-26.03 -59.96,-39.04 -109.14,-39.04l-287.52 0 158.05 -189.9 0 670.85z"/>
    </g>
   </g>
   <path class="fil2" d="M1167.82 31.63l525.56 0c3.44,0 6.56,0.15 9.75,0.46 51.21,1.71 101.96,8.25 151.16,20.91 2.51,0.56 5,1.22 7.46,1.97 39.63,10.73 78.2,25.5 115.13,44.99 88.6,46.75 158.36,114.64 207.03,202.18 50.94,91.61 71.28,193.74 71.28,297.88 0,103.76 -20.19,205.78 -71.64,296.74 -26.02,46 -58.14,86.6 -96.09,121.39l176.88 305.62c18.38,31.75 18.41,68.13 0.08,99.92 -18.33,31.78 -49.83,49.98 -86.52,49.98l-379.35 0c-36.81,0 -68.41,-18.33 -86.69,-50.28l-88.15 -154.08 0 104.5c0,55.01 -44.86,99.87 -99.87,99.87l-355.97 0c-0.46,0 -0.92,0 -1.38,-0.01l-123.19 0c-43.96,0 -81.3,-27.09 -94.95,-68.88l-48.19 -147.64 -256.39 0 -48.19 147.64c-13.65,41.79 -50.99,68.88 -94.95,68.88l-361.77 0c-33.73,0 -62.74,-15.16 -81.99,-42.85 -19.25,-27.69 -23.37,-60.17 -11.63,-91.79l461.26 -1242.3c14.82,-39.89 51.07,-65.11 93.63,-65.11l567.69 0z"/>
   <g>
    <g transform="matrix(0.849369 0 0 1 -859.637 -2150.49)">
     <path class="fil3" d="M138.88 1373.8l461.26 -1242.3 349.72 0 461.26 1242.3 -367.8 0 -340.67 -1043.53 138.68 0 -340.66 1043.53 -361.77 0zm274.34 -216.52l90.44 -301.7 485.38 0 90.43 301.7 -666.26 0z"/>
    </g>
    <polygon class="fil3" points="1167.88,1373.81 1167.88,456.28 858.66,456.28 858.66,131.5 1693.39,131.5 1713.12,134.6 1817.02,156.26 1833.07,150.94 1833.07,456.28 1523.85,456.28 1523.85,1373.81 "/>
    <g transform="matrix(0.848233 0 0 1 56.2302 -2150.49)">
     <path class="fil3" d="M1167.82 1373.8l0 -1242.3 507.3 0c98.36,0 183.4,18.93 255.16,56.79 71.76,37.87 127.21,92 166.35,162.39 39.14,70.4 58.7,153.51 58.7,249.35 0,95.84 -19.56,178.36 -58.7,247.57 -39.15,69.21 -94.6,122.16 -166.35,158.84 -71.76,36.68 -156.8,55.02 -255.16,55.02l-310.1 0 158.05 -172.15 0 484.5 -355.26 0zm630.74 0l-258.92 -452.56 376.34 0 261.93 452.56 -379.35 0zm-275.48 -438.35l-158.05 -189.9 287.52 0c49.18,0 85.55,-13.01 109.14,-39.04 23.59,-26.03 35.38,-61.52 35.38,-106.48 0,-44.96 -11.79,-80.45 -35.38,-106.47 -23.59,-26.03 -59.96,-39.04 -109.14,-39.04l-287.52 0 158.05 -189.9 0 670.85z"/>
    </g>
   </g>
  </g>
 </g>
</svg>
