<?xml version="1.0" encoding="UTF-8"?>
<!DOCTYPE svg PUBLIC "-//W3C//DTD SVG 1.1//EN" "http://www.w3.org/Graphics/SVG/1.1/DTD/svg11.dtd">
<!-- Creator: CorelDRAW -->
<svg xmlns="http://www.w3.org/2000/svg" xml:space="preserve" width="24px" height="24px" version="1.1" shape-rendering="geometricPrecision" text-rendering="geometricPrecision" image-rendering="optimizeQuality" fill-rule="evenodd" clip-rule="evenodd"
viewBox="0 0 24 24"
 xmlns:xlink="http://www.w3.org/1999/xlink"
 xmlns:xodm="http://www.corel.com/coreldraw/odm/2003">
 <g id="Capa_x0020_1">
  <metadata id="CorelCorpID_0Corel-Layer"/>
  <g id="_1770981034208">
   <path fill="#F7B52D" d="M11.3 6.2c-7.46,0.84 -6.5,12.4 1.4,11.58 7.5,-0.77 6.35,-12.46 -1.4,-11.58z"/>
   <path fill="#231814" d="M11.3 6.2c7.75,-0.88 8.9,10.81 1.4,11.58 -7.9,0.82 -8.86,-10.74 -1.4,-11.58zm0.35 -1.14c-10.96,2.66 -7.08,14.3 0.92,13.89 10,-0.51 6.76,-15.76 -0.92,-13.89z"/>
   <path fill="#221714" d="M1.49 17.6c0.15,0.48 0.13,0.35 0.5,0.71 0.56,-0.08 1.16,-0.5 1.65,-0.78 0.57,-0.34 1.56,-0.62 1.01,-1.43 -0.39,-0.58 -1.55,0.29 -2.48,0.85 -0.61,0.37 -0.33,0.07 -0.68,0.65z"/>
   <path fill="#221714" d="M17.59 22.5c0.49,-0.15 0.36,-0.13 0.71,-0.5 -0.08,-0.56 -0.5,-1.16 -0.78,-1.65 -0.34,-0.58 -0.61,-1.55 -1.43,-1.01 -0.61,0.41 0.11,1.15 0.38,1.62 0.17,0.31 0.29,0.55 0.47,0.86 0.37,0.59 0.08,0.33 0.65,0.68z"/>
   <path fill="#221714" d="M1.49 6.4c0.36,0.61 0.27,0.43 1.44,1.07 0.5,0.27 1.31,1.04 1.72,0.43 0.5,-0.75 -0.36,-1.04 -0.92,-1.37 -0.52,-0.31 -1.15,-0.76 -1.76,-0.84 -0.35,0.38 -0.32,0.2 -0.48,0.71z"/>
   <path fill="#221714" d="M5.68 22c0.36,0.37 0.22,0.35 0.71,0.5 0.61,-0.37 0.43,-0.27 1.07,-1.44 0.27,-0.5 1.04,-1.31 0.43,-1.72 -0.74,-0.5 -1.04,0.35 -1.37,0.92 -0.31,0.52 -0.76,1.15 -0.84,1.74z"/>
   <path fill="#221714" d="M5.66 1.97c0.1,0.58 0.52,1.19 0.8,1.67 0.34,0.58 0.61,1.57 1.43,1.02 0.61,-0.42 -0.13,-1.2 -0.38,-1.63 -0.6,-1.08 -0.47,-1.14 -1.12,-1.53l-0.73 0.47z"/>
   <path fill="#221714" d="M22 18.31c0.36,-0.36 0.34,-0.23 0.49,-0.71 -0.38,-0.63 0.01,-0.21 -0.59,-0.6 -0.87,-0.55 -2.17,-1.48 -2.57,-0.9 -0.74,1.09 2.67,2.21 2.67,2.21z"/>
   <path fill="#221714" d="M18.3 1.99l-0.53 -0.5c-0.62,0.19 -0.44,0.09 -0.72,0.5 -0.16,0.23 -0.34,0.6 -0.48,0.85 -0.24,0.44 -1,1.3 -0.57,1.75 1.06,1.07 2.3,-2.59 2.3,-2.6z"/>
   <path fill="#221714" d="M20.67 11.55c-0.32,0.22 -0.68,1.04 0.76,1.05 0.23,0 3.26,0.35 2.43,-0.92 -0.37,-0.56 -2.93,-0.3 -3.19,-0.13z"/>
   <path fill="#221714" d="M0.29 11.55c-0.33,0.22 -0.68,1.04 0.76,1.05 0.23,0 3.25,0.35 2.43,-0.92 -0.37,-0.56 -2.93,-0.3 -3.19,-0.13z"/>
   <path fill="#221714" d="M22.48 6.24l-0.48 -0.56c-0.56,0.11 -1.11,0.47 -1.65,0.79 -0.58,0.34 -1.57,0.61 -1.02,1.43 0.48,0.7 2.98,-1.03 3.15,-1.66z"/>
   <path fill="#221714" d="M11.66 0.18c-0.41,0.27 -0.67,4.17 0.65,3.3 0.5,-0.32 0.27,-1.53 0.28,-2.12 0.01,-0.62 0.01,-1.79 -0.93,-1.18z"/>
   <path fill="#221714" d="M11.66 20.56c-0.41,0.27 -0.67,4.17 0.65,3.31 0.5,-0.33 0.27,-1.54 0.28,-2.13 0.01,-0.62 0.01,-1.79 -0.93,-1.18z"/>
  </g>
 </g>
</svg>
