<?xml version="1.0" encoding="UTF-8"?>
<!DOCTYPE svg PUBLIC "-//W3C//DTD SVG 1.1//EN" "http://www.w3.org/Graphics/SVG/1.1/DTD/svg11.dtd">
<!-- Creator: CorelDRAW -->
<svg xmlns="http://www.w3.org/2000/svg" xml:space="preserve" width="24px" height="24px" version="1.1" shape-rendering="geometricPrecision" text-rendering="geometricPrecision" image-rendering="optimizeQuality" fill-rule="evenodd" clip-rule="evenodd"
viewBox="0 0 24 24"
 xmlns:xlink="http://www.w3.org/1999/xlink"
 xmlns:xodm="http://www.corel.com/coreldraw/odm/2003">
 <g id="Capa_x0020_1">
  <metadata id="CorelCorpID_0Corel-Layer"/>
  <g id="_1770846023776">
   <path fill="#158FCC" d="M8.98 6.62c-0.19,4.94 3.43,8.58 8.41,8.41 -0.23,0.6 -1.2,1.49 -1.73,1.86 -4.42,3.08 -10.38,-0.66 -9.59,-5.95 0.15,-1 0.54,-1.89 1.01,-2.57 0.28,-0.4 0.51,-0.66 0.82,-0.95 0.26,-0.25 0.67,-0.66 1.08,-0.8zm-4.69 4.9c0,1.56 0.1,2.32 0.74,3.7 0.74,1.62 2.12,2.97 3.71,3.74 2.4,1.14 5.19,1 7.46,-0.35 0.92,-0.56 1.08,-0.77 1.79,-1.48 0.28,-0.28 0.5,-0.58 0.73,-0.93 0.42,-0.63 0.99,-1.68 0.99,-2.43 0,-0.34 -0.34,-0.75 -0.91,-0.75 -0.29,0 -0.84,0.27 -1.55,0.27 -1.29,0 -2.4,-0.11 -3.49,-0.8 -0.15,-0.09 -0.32,-0.19 -0.46,-0.29 -0.81,-0.58 -1.53,-1.4 -1.98,-2.31 -0.58,-1.17 -0.76,-2.64 -0.5,-3.95 0.09,-0.45 0.16,-0.39 0.16,-0.9 0,-0.34 -0.34,-0.75 -0.91,-0.75 -0.4,0 -1.36,0.44 -1.74,0.67 -1.65,0.98 -2.65,2.06 -3.46,3.88 -0.29,0.66 -0.58,1.73 -0.58,2.68z"/>
   <path fill="#A7E4FD" d="M8.98 6.62c-0.41,0.14 -0.82,0.55 -1.08,0.8 -0.31,0.29 -0.54,0.55 -0.82,0.95 -0.47,0.68 -0.86,1.57 -1.01,2.57 -0.79,5.29 5.17,9.03 9.59,5.95 0.53,-0.37 1.5,-1.26 1.73,-1.86 -4.98,0.17 -8.6,-3.47 -8.41,-8.41z"/>
   <path fill="#148ECB" d="M18.38 4.71c0,0.49 0.45,0.91 0.85,0.91 0.45,0 0.67,-0.31 0.92,-0.53l0.17 -0.15c0.07,-0.07 0.11,-0.11 0.18,-0.19 0.74,-0.98 -0.38,-2.09 -1.38,-1.12l-0.67 0.78c-0.01,0.04 -0.07,0.29 -0.07,0.3z"/>
   <path fill="#148ECB" d="M3.27 19.77c0,0.68 0.28,0.96 0.96,0.96 0.36,0 0.89,-0.56 1.08,-0.79 0.65,-0.79 0.07,-1.55 -0.59,-1.53 -0.4,0.01 -0.47,0.15 -0.76,0.39l-0.45 0.46c-0.12,0.14 -0.24,0.32 -0.24,0.51z"/>
   <path fill="#148ECB" d="M0 11.89c0,1.17 0.99,0.97 1.82,0.97 0.39,0 0.75,-0.37 0.75,-0.97 0,-0.33 -0.42,-0.75 -0.75,-0.75l-1.07 0c-0.34,0 -0.75,0.42 -0.75,0.75z"/>
   <path fill="#148ECB" d="M21.43 11.89c0,1.17 0.99,0.97 1.82,0.97 0.39,0 0.75,-0.37 0.75,-0.97 0,-0.33 -0.41,-0.75 -0.75,-0.75l-1.07 0c-0.33,0 -0.75,0.42 -0.75,0.75z"/>
   <path fill="#148ECB" d="M3.27 4.07c0,0.6 0.39,0.84 0.87,1.27 0.48,0.44 1.43,0.3 1.43,-0.73 0,-0.29 -0.72,-1.34 -1.5,-1.34 -0.46,0 -0.8,0.34 -0.8,0.8z"/>
   <path fill="#148ECB" d="M18.43 19.23c0,0.28 0,0.38 0.2,0.61 0.07,0.07 0.08,0.08 0.15,0.17 0.05,0.05 0.03,0.03 0.07,0.08 0.01,0.01 0.02,0.02 0.03,0.03l0.32 0.32c0.56,0.52 1.53,0.41 1.53,-0.67 0,-0.4 -0.93,-1.34 -1.34,-1.34 -0.55,0 -0.96,0.26 -0.96,0.8z"/>
   <path fill="#148ECB" d="M11.14 22.18l0 1.07c0,0.39 0.37,0.75 0.97,0.75 0.33,0 0.75,-0.41 0.75,-0.75l0 -1.07c0,-0.39 -0.37,-0.75 -0.97,-0.75 -0.33,0 -0.75,0.42 -0.75,0.75z"/>
   <path fill="#148ECB" d="M11.14 0.75l0 1.07c0,0.39 0.37,0.75 0.97,0.75 0.33,0 0.75,-0.42 0.75,-0.75l0 -1.07c0,-0.39 -0.37,-0.75 -0.97,-0.75 -0.33,0 -0.75,0.41 -0.75,0.75z"/>
  </g>
 </g>
</svg>
